<mxfile host="app.diagrams.net" modified="2022-10-27T15:49:05.774Z" agent="5.0 (Windows NT 10.0; Win64; x64) AppleWebKit/537.36 (KHTML, like Gecko) Chrome/106.0.0.0 Safari/537.36" etag="D45H6leSZ-cn3fMZaawX" version="20.5.1" type="github">
  <diagram id="0d7cefc2-ccd6-e077-73ed-a8e48b0cddf6" name="Page-1">
    <mxGraphModel dx="1422" dy="737" grid="1" gridSize="10" guides="1" tooltips="1" connect="1" arrows="1" fold="1" page="1" pageScale="1" pageWidth="1169" pageHeight="827" background="none" math="0" shadow="0">
      <root>
        <mxCell id="0" />
        <mxCell id="1" parent="0" />
        <mxCell id="2" value="" style="swimlane;shadow=0;strokeColor=#4277BB;fillColor=#ffffff;fontColor=#4277BB;align=right;startSize=0;collapsible=0;strokeWidth=3;" parent="1" vertex="1">
          <mxGeometry x="190" y="74" width="813" height="680" as="geometry" />
        </mxCell>
        <mxCell id="103" style="edgeStyle=elbowEdgeStyle;rounded=0;elbow=vertical;html=1;labelBackgroundColor=#ffffff;startArrow=oval;startFill=1;startSize=4;endArrow=classic;endFill=1;endSize=4;jettySize=auto;orthogonalLoop=1;strokeColor=#4277BB;strokeWidth=2;fontSize=14;fontColor=#4277BB;" parent="2" source="76" target="77" edge="1">
          <mxGeometry relative="1" as="geometry" />
        </mxCell>
        <mxCell id="106" style="edgeStyle=elbowEdgeStyle;rounded=0;elbow=vertical;html=1;entryX=0;entryY=0.522;entryPerimeter=0;labelBackgroundColor=#ffffff;startArrow=oval;startFill=1;startSize=4;endArrow=classic;endFill=1;endSize=4;jettySize=auto;orthogonalLoop=1;strokeColor=#4277BB;strokeWidth=2;fontSize=14;fontColor=#4277BB;" parent="2" source="77" target="79" edge="1">
          <mxGeometry relative="1" as="geometry" />
        </mxCell>
        <mxCell id="104" style="edgeStyle=elbowEdgeStyle;rounded=0;elbow=vertical;html=1;labelBackgroundColor=#ffffff;startArrow=classic;startFill=1;startSize=4;endArrow=oval;endFill=1;endSize=4;jettySize=auto;orthogonalLoop=1;strokeColor=#4277BB;strokeWidth=2;fontSize=14;fontColor=#4277BB;" parent="2" source="76" target="28" edge="1">
          <mxGeometry relative="1" as="geometry">
            <mxPoint x="143" y="200" as="targetPoint" />
          </mxGeometry>
        </mxCell>
        <mxCell id="6" value="FILES" style="rounded=0;html=1;shadow=0;labelBackgroundColor=none;strokeColor=none;strokeWidth=2;fillColor=#1A1A1A;gradientColor=none;fontSize=12;fontColor=#4277BB;align=left;labelPosition=right;verticalLabelPosition=middle;verticalAlign=middle;spacingLeft=5;" parent="2" vertex="1">
          <mxGeometry x="580" y="584" width="20" height="10" as="geometry" />
        </mxCell>
        <mxCell id="7" value="MI TASK" style="rounded=0;html=1;shadow=0;labelBackgroundColor=none;strokeColor=none;strokeWidth=2;fillColor=#8DC642;gradientColor=none;fontSize=12;fontColor=#4277BB;align=left;labelPosition=right;verticalLabelPosition=middle;verticalAlign=middle;spacingLeft=5;" parent="2" vertex="1">
          <mxGeometry x="580" y="604" width="20" height="10" as="geometry" />
        </mxCell>
        <mxCell id="8" value="PRODUCT" style="rounded=0;html=1;shadow=0;labelBackgroundColor=none;strokeColor=none;strokeWidth=2;fillColor=#27496D;gradientColor=none;fontSize=12;fontColor=#4277BB;align=left;labelPosition=right;verticalLabelPosition=middle;verticalAlign=middle;spacingLeft=5;" parent="2" vertex="1">
          <mxGeometry x="580" y="624" width="20" height="10" as="geometry" />
        </mxCell>
        <mxCell id="13" value="LEGEND" style="text;html=1;align=left;verticalAlign=middle;fontColor=#4277BB;shadow=0;dashed=0;strokeColor=none;fillColor=none;labelBackgroundColor=none;fontStyle=1;fontSize=14;spacingLeft=0;" parent="2" vertex="1">
          <mxGeometry x="580" y="554" width="150" height="20" as="geometry" />
        </mxCell>
        <mxCell id="76" value="INTO" style="aspect=fixed;perimeter=ellipsePerimeter;html=1;align=center;shadow=0;dashed=0;image;image=img/lib/ibm/management/api_management.svg;rounded=1;labelBackgroundColor=#ffffff;strokeColor=#666666;strokeWidth=3;fillColor=#C2952D;gradientColor=none;fontSize=14;fontColor=#4277BB;spacingTop=3;" parent="2" vertex="1">
          <mxGeometry x="130" y="60" width="60" height="60" as="geometry" />
        </mxCell>
        <mxCell id="28" value="" style="swimlane;shadow=0;strokeColor=#000000;fillColor=#ffffff;fontColor=#4277BB;align=right;startSize=0;collapsible=0;strokeWidth=3;dashed=1;" parent="2" vertex="1">
          <mxGeometry x="96" y="186" width="128" height="380" as="geometry" />
        </mxCell>
        <mxCell id="y9YVJhzZgnboRioXDAms-140" value="" style="shape=image;html=1;verticalAlign=middle;verticalLabelPosition=bottom;labelBackgroundColor=none;imageAspect=0;aspect=fixed;image=https://cdn1.iconfinder.com/data/icons/bootstrap-vol-3/16/filetype-txt-128.png;shadow=0;dashed=1;strokeColor=none;fillColor=#EBC01A;align=left;fontColor=#4277BB;fontStyle=1;startSize=0;strokeWidth=2;rounded=0;gradientColor=none;spacingLeft=5;" parent="28" vertex="1">
          <mxGeometry x="37" y="16" width="54" height="54" as="geometry" />
        </mxCell>
        <mxCell id="y9YVJhzZgnboRioXDAms-141" value="" style="shape=image;html=1;verticalAlign=middle;verticalLabelPosition=bottom;labelBackgroundColor=none;imageAspect=0;aspect=fixed;image=https://cdn1.iconfinder.com/data/icons/bootstrap-vol-3/16/filetype-csv-128.png;shadow=0;dashed=1;strokeColor=none;fillColor=#EBC01A;align=left;fontColor=#4277BB;rounded=0;strokeWidth=2;gradientColor=none;spacingLeft=5;" parent="28" vertex="1">
          <mxGeometry x="36.75" y="89" width="54.5" height="54.5" as="geometry" />
        </mxCell>
        <mxCell id="y9YVJhzZgnboRioXDAms-142" value="" style="dashed=0;outlineConnect=0;html=1;align=left;labelPosition=center;verticalLabelPosition=bottom;verticalAlign=middle;shape=mxgraph.weblogos.json;shadow=0;strokeColor=none;fillColor=#EBC01A;fontColor=#4277BB;rounded=0;labelBackgroundColor=none;strokeWidth=2;gradientColor=none;spacingLeft=5;" parent="28" vertex="1">
          <mxGeometry x="38" y="160" width="52" height="60" as="geometry" />
        </mxCell>
        <mxCell id="y9YVJhzZgnboRioXDAms-143" value="&lt;font style=&quot;font-size: 8px;&quot; color=&quot;#ffffff&quot;&gt;PARQUET&lt;/font&gt;" style="whiteSpace=wrap;html=1;shape=mxgraph.basic.document;shadow=0;dashed=1;strokeColor=none;fillColor=#1A1A1A;align=left;fontColor=#4277BB;rounded=0;labelBackgroundColor=none;strokeWidth=2;gradientColor=none;spacingLeft=5;" parent="28" vertex="1">
          <mxGeometry x="38" y="236" width="52" height="54" as="geometry" />
        </mxCell>
        <mxCell id="y9YVJhzZgnboRioXDAms-145" value="" style="shape=image;html=1;verticalAlign=middle;verticalLabelPosition=bottom;labelBackgroundColor=none;imageAspect=0;aspect=fixed;image=https://cdn0.iconfinder.com/data/icons/phosphor-fill-vol-3/256/microsoft-excel-logo-fill-128.png;shadow=0;dashed=1;strokeColor=none;fillColor=#EBC01A;align=left;fontColor=#4277BB;rounded=0;strokeWidth=2;gradientColor=none;spacingLeft=5;" parent="28" vertex="1">
          <mxGeometry x="24" y="296" width="80" height="80" as="geometry" />
        </mxCell>
        <mxCell id="77" value="" style="swimlane;shadow=0;strokeColor=#4277BB;fillColor=#ffffff;fontColor=#4277BB;align=right;startSize=0;collapsible=0;strokeWidth=3;" parent="2" vertex="1">
          <mxGeometry x="290" y="57" width="185" height="483" as="geometry" />
        </mxCell>
        <mxCell id="y9YVJhzZgnboRioXDAms-106" value="PYTHON" style="shape=image;html=1;verticalAlign=middle;verticalLabelPosition=bottom;labelBackgroundColor=none;imageAspect=0;aspect=fixed;image=https://cdn2.iconfinder.com/data/icons/boxicons-logos/24/bxl-python-128.png;align=left;fillColor=#8DC642;strokeColor=none;fontColor=#4277BB;rounded=0;shadow=0;strokeWidth=2;gradientColor=none;spacingLeft=5;dashed=0;" parent="77" vertex="1">
          <mxGeometry x="55" y="20.5" width="75" height="75" as="geometry" />
        </mxCell>
        <mxCell id="y9YVJhzZgnboRioXDAms-107" value="MySQL" style="sketch=0;outlineConnect=0;fontColor=#4277BB;gradientColor=none;fillColor=#8DC642;strokeColor=none;dashed=0;verticalLabelPosition=bottom;verticalAlign=middle;align=left;html=1;fontSize=12;fontStyle=0;aspect=fixed;pointerEvents=1;shape=mxgraph.aws4.rds_mysql_instance;shadow=0;rounded=0;labelBackgroundColor=none;strokeWidth=2;spacingLeft=5;" parent="77" vertex="1">
          <mxGeometry x="60" y="338" width="53" height="53" as="geometry" />
        </mxCell>
        <mxCell id="y9YVJhzZgnboRioXDAms-139" value="ETL PROCES" style="outlineConnect=0;dashed=0;verticalLabelPosition=bottom;verticalAlign=middle;align=left;html=1;shape=mxgraph.aws3.change_set;fillColor=#8DC642;gradientColor=none;shadow=0;strokeColor=none;fontColor=#4277BB;rounded=0;labelBackgroundColor=none;strokeWidth=2;spacingLeft=5;" parent="77" vertex="1">
          <mxGeometry x="57.5" y="179" width="55.5" height="64.5" as="geometry" />
        </mxCell>
        <mxCell id="79" value="" style="swimlane;shadow=0;strokeColor=#4277BB;fillColor=#ffffff;fontColor=#4277BB;align=right;startSize=0;collapsible=0;strokeWidth=3;dashed=1;" parent="2" vertex="1">
          <mxGeometry x="563" y="57" width="137" height="483" as="geometry" />
        </mxCell>
        <mxCell id="93" value="" style="group;fontSize=14;fontColor=#4277BB;labelBackgroundColor=#ffffff;" parent="79" vertex="1" connectable="0">
          <mxGeometry x="40" y="49" width="60" height="60" as="geometry" />
        </mxCell>
        <mxCell id="94" value="" style="aspect=fixed;perimeter=ellipsePerimeter;html=1;align=center;shadow=0;dashed=0;image;image=img/lib/ibm/miscellaneous/scalable.svg;rounded=1;labelBackgroundColor=none;strokeColor=#666666;strokeWidth=3;fillColor=#C2952D;gradientColor=none;fontSize=14;fontColor=#4277BB;" parent="93" vertex="1">
          <mxGeometry width="15" height="15" as="geometry" />
        </mxCell>
        <mxCell id="95" value="PRICE" style="aspect=fixed;perimeter=ellipsePerimeter;html=1;align=center;shadow=0;dashed=0;image;image=img/lib/ibm/data/file_repository.svg;rounded=1;labelBackgroundColor=none;strokeColor=#666666;strokeWidth=3;fillColor=#C2952D;gradientColor=none;fontSize=14;fontColor=#4277BB;" parent="93" vertex="1">
          <mxGeometry width="60" height="60" as="geometry" />
        </mxCell>
        <mxCell id="96" value="" style="group;fontSize=14;fontColor=#4277BB;labelBackgroundColor=#ffffff;" parent="79" vertex="1" connectable="0">
          <mxGeometry x="40" y="209" width="60" height="60" as="geometry" />
        </mxCell>
        <mxCell id="97" value="" style="aspect=fixed;perimeter=ellipsePerimeter;html=1;align=center;shadow=0;dashed=0;image;image=img/lib/ibm/miscellaneous/scalable.svg;rounded=1;labelBackgroundColor=none;strokeColor=#666666;strokeWidth=3;fillColor=#C2952D;gradientColor=none;fontSize=14;fontColor=#4277BB;" parent="96" vertex="1">
          <mxGeometry width="15" height="15" as="geometry" />
        </mxCell>
        <mxCell id="98" value="SUCURSAL" style="aspect=fixed;perimeter=ellipsePerimeter;html=1;align=center;shadow=0;dashed=0;image;image=img/lib/ibm/data/file_repository.svg;rounded=1;labelBackgroundColor=none;strokeColor=#666666;strokeWidth=3;fillColor=#C2952D;gradientColor=none;fontSize=14;fontColor=#4277BB;" parent="96" vertex="1">
          <mxGeometry width="60" height="60" as="geometry" />
        </mxCell>
        <mxCell id="99" value="" style="group;fontSize=14;fontColor=#4277BB;labelBackgroundColor=#ffffff;" parent="79" vertex="1" connectable="0">
          <mxGeometry x="40" y="368" width="60" height="60" as="geometry" />
        </mxCell>
        <mxCell id="100" value="" style="aspect=fixed;perimeter=ellipsePerimeter;html=1;align=center;shadow=0;dashed=0;image;image=img/lib/ibm/miscellaneous/scalable.svg;rounded=1;labelBackgroundColor=none;strokeColor=#666666;strokeWidth=3;fillColor=#C2952D;gradientColor=none;fontSize=14;fontColor=#4277BB;" parent="99" vertex="1">
          <mxGeometry width="15" height="15" as="geometry" />
        </mxCell>
        <mxCell id="101" value="PRODUCT" style="aspect=fixed;perimeter=ellipsePerimeter;html=1;align=center;shadow=0;dashed=0;image;image=img/lib/ibm/data/file_repository.svg;rounded=1;labelBackgroundColor=none;strokeColor=#666666;strokeWidth=3;fillColor=#C2952D;gradientColor=none;fontSize=14;fontColor=#4277BB;" parent="99" vertex="1">
          <mxGeometry width="60" height="60" as="geometry" />
        </mxCell>
        <mxCell id="KUpmJ2HQixmpIvXMZ3Co-106" value="&lt;font style=&quot;font-size: 26px;&quot;&gt;PIPLINE&lt;/font&gt;" style="text;html=1;align=center;verticalAlign=middle;resizable=0;points=[];autosize=1;strokeColor=none;fillColor=none;fontStyle=3;fontColor=#FF8000;" vertex="1" parent="2">
          <mxGeometry x="322.5" y="6" width="120" height="40" as="geometry" />
        </mxCell>
      </root>
    </mxGraphModel>
  </diagram>
</mxfile>
